<?xml version="1.0" standalone="no"?>
<!DOCTYPE svg PUBLIC "-//W3C//DTD SVG 20010904//EN"
 "http://www.w3.org/TR/2001/REC-SVG-20010904/DTD/svg10.dtd">
<svg version="1.0" xmlns="http://www.w3.org/2000/svg"
 width="200.000000pt" height="200.000000pt" viewBox="0 0 200.000000 200.000000"
 preserveAspectRatio="xMidYMid meet">
<metadata>
Created by potrace 1.14, written by Peter Selinger 2001-2017
</metadata>
<g transform="translate(0.000000,200.000000) scale(0.100000,-0.100000)"
fill="#000000" stroke="none">
<path d="M1315 1690 c-11 -4 -23 -6 -27 -3 -4 2 -1 -15 7 -38 21 -58 19 -61
-21 -37 -63 37 -156 20 -138 -25 5 -14 14 -16 39 -11 39 7 89 -16 124 -58 20
-24 30 -28 54 -22 20 4 32 2 38 -7 15 -23 10 -34 -5 -13 -15 19 -16 19 -61 -5
-53 -28 -128 -107 -143 -151 -13 -36 -9 -37 30 -5 36 30 40 30 63 5 11 -13 16
-30 13 -50 -5 -32 7 -42 15 -12 9 37 14 -145 5 -187 -7 -27 -5 -32 7 -27 8 3
15 1 15 -4 0 -6 -7 -10 -15 -10 -9 0 -27 -11 -41 -25 -14 -14 -33 -25 -44 -25
-10 0 -23 -6 -27 -12 -4 -7 -21 -20 -37 -28 -30 -16 -32 -18 -66 -90 -20 -42
-20 -49 -7 -85 27 -77 188 -306 300 -426 59 -63 195 -83 244 -37 63 59 215
380 215 455 0 65 -14 82 -64 77 -41 -3 -41 -3 -8 4 51 11 58 18 66 58 13 70
-45 184 -93 184 -13 0 -23 -5 -23 -11 0 -6 -10 -19 -22 -30 -37 -30 -38 -22
-2 16 44 47 64 45 110 -15 21 -27 40 -48 42 -45 2 2 5 34 6 72 1 55 5 68 19
71 9 2 17 -1 17 -7 0 -6 8 -11 18 -11 10 0 22 -4 28 -10 5 -5 15 -6 23 0 12 7
12 12 -3 34 -9 14 -12 27 -6 27 5 1 16 2 23 3 6 0 13 11 15 24 3 17 -2 25 -17
29 -15 4 -18 9 -12 17 6 7 6 18 1 25 -6 11 -14 8 -35 -15 -15 -16 -22 -21 -15
-11 9 12 9 17 1 17 -6 0 -9 10 -7 23 3 12 5 30 5 39 1 12 6 15 19 11 15 -6 15
-5 4 10 -22 26 -158 9 -227 -30 -47 -26 -139 -37 -182 -22 -18 7 -27 2 -48
-24 -23 -28 -24 -29 -15 -6 7 14 24 33 40 42 31 19 115 23 125 7 10 -16 37
-12 73 10 l33 20 -18 31 c-11 18 -39 40 -73 56 -30 15 -56 28 -58 29 -2 1 3
18 12 37 24 59 81 83 147 62 14 -5 19 -3 15 3 -4 6 1 15 11 20 14 8 12 12 -14
25 -96 50 -183 5 -235 -122 -13 -34 -17 -38 -13 -16 3 17 7 46 10 65 3 19 12
61 19 92 12 51 11 56 -3 56 -9 -1 -22 1 -30 3 -20 6 -49 -93 -57 -194 -7 -81
-8 -82 -55 -129 -27 -27 -53 -48 -58 -48 -6 0 -15 -8 -20 -17 -6 -10 -11 -14
-11 -9 0 4 14 24 30 43 17 18 30 41 31 51 0 15 1 15 8 -1 6 -16 9 -16 31 8 23
24 23 27 11 78 -7 28 -27 81 -44 117 -17 36 -33 77 -36 91 -5 21 -10 25 -26
19z m582 -456 c-3 -3 -12 -4 -19 -1 -8 3 -5 6 6 6 11 1 17 -2 13 -5z m-380
-25 c10 -9 13 -23 9 -42 -8 -42 -22 -56 -82 -82 -28 -12 -54 -27 -58 -33 -11
-17 5 -42 31 -48 19 -5 31 0 53 25 37 40 50 40 15 0 -31 -38 -29 -47 15 -71
22 -11 28 -18 17 -18 -17 0 -26 6 -62 38 -7 6 -22 12 -32 12 -10 1 -34 15 -53
32 -19 17 -30 28 -24 25 6 -4 24 5 40 18 16 14 37 28 47 31 12 4 18 14 17 32
-1 15 -2 44 -1 65 1 35 3 37 27 33 14 -3 32 -11 41 -17z m336 14 c-7 -2 -19
-2 -25 0 -7 3 -2 5 12 5 14 0 19 -2 13 -5z m-88 -17 c-67 -15 -72 -19 -88 -74
-8 -26 -26 -71 -40 -100 -26 -54 -27 -91 -5 -134 12 -24 6 -23 -26 7 -15 14
-37 26 -49 26 -16 1 -17 3 -5 6 9 2 27 -1 39 -7 21 -12 21 -11 15 22 -5 27 0
46 23 89 16 30 32 70 36 89 12 63 48 88 125 88 14 0 3 -5 -25 -12z m-107 -227
c-6 -16 -12 -28 -14 -26 -5 5 13 57 20 57 3 0 0 -14 -6 -31z m57 -134 c16 -8
23 -15 14 -15 -8 0 -30 11 -49 25 -19 14 -31 25 -26 25 4 0 0 10 -8 22 -9 12
-16 27 -16 32 0 6 12 -9 27 -32 15 -23 41 -48 58 -57z"/>
<path d="M193 1487 c-4 -8 -21 -21 -38 -30 -117 -60 -150 -248 -89 -492 34
-132 129 -274 204 -305 30 -12 34 -19 44 -81 14 -80 91 -158 184 -185 131 -38
264 1 323 94 49 77 59 133 61 323 1 130 2 139 24 159 84 79 34 210 -81 210
-66 0 -115 -53 -115 -124 0 -41 48 -103 83 -108 22 -3 22 -6 22 -158 -1 -178
-16 -240 -69 -293 -41 -41 -91 -56 -169 -53 -93 5 -162 49 -193 123 -24 56
-19 68 41 98 139 68 234 294 230 545 -2 110 -35 183 -100 224 -24 15 -45 36
-48 47 -6 22 -51 27 -63 7 -13 -21 -11 -88 3 -99 7 -7 27 -9 47 -5 31 6 37 3
59 -26 48 -64 58 -163 31 -307 -27 -140 -77 -247 -145 -305 -70 -59 -131 -54
-197 18 -89 97 -138 246 -143 436 -2 69 16 130 51 172 23 28 30 31 43 20 9 -8
26 -12 39 -10 21 3 23 8 23 58 0 52 -1 55 -27 58 -15 2 -30 -3 -35 -11z m677
-387 c11 -11 20 -23 20 -27 -1 -63 -70 -91 -107 -44 -17 22 -16 42 3 69 19 28
57 29 84 2z"/>
<path d="M1171 1269 c-101 -88 -116 -123 -115 -271 1 -79 5 -122 14 -132 16
-20 26 -13 35 21 7 29 42 73 58 73 5 0 20 9 34 20 14 11 29 17 34 14 5 -3 14
6 21 20 6 14 16 26 21 26 5 0 3 -7 -4 -17 -13 -15 -12 -15 9 -2 12 8 17 16 12
17 -8 3 -8 8 0 16 5 7 13 41 16 74 6 50 3 66 -12 89 -10 15 -17 41 -15 56 3
27 -13 57 -30 57 -4 0 -39 -28 -78 -61z"/>
<path d="M1932 1295 c0 -16 2 -22 5 -12 2 9 2 23 0 30 -3 6 -5 -1 -5 -18z"/>
</g>
</svg>
